<svg width="24" height="24" viewBox="0 0 24 24" fill="none" xmlns="http://www.w3.org/2000/svg">
<path d="M13.9511 2.71669L14.1334 2.8867L14.8522 3.60544C15.0991 3.85116 15.4229 4.00266 15.7674 4.0367L15.9161 4.04403H16.9441C18.5479 4.04403 19.8594 5.29819 19.951 6.87908L19.9561 7.05603V8.08303C19.9561 8.43282 20.0767 8.7691 20.2943 9.03648L20.3934 9.1467L21.1122 9.8655C22.2437 10.9919 22.2943 12.7932 21.2577 13.9803L21.1224 14.1254L20.3941 14.8537C20.1491 15.0993 19.9975 15.4234 19.9634 15.7675L19.9561 15.916V16.945C19.9561 18.5488 18.702 19.8593 17.1211 19.9509L16.9441 19.956H15.9161C15.5676 19.956 15.2309 20.0772 14.9633 20.2953L14.8531 20.3947L14.1352 21.1116C13.01 22.2444 11.2074 22.2947 10.0199 21.2576L9.86577 21.1134L9.14866 20.3962C8.90027 20.1496 8.57583 19.9975 8.23232 19.9634L8.0841 19.956H7.0551C5.45197 19.956 4.14083 18.7025 4.04922 17.1219L4.0441 16.945V15.916C4.0441 15.5681 3.92281 15.231 3.70472 14.964L3.60541 14.854L2.88828 14.1359C1.7557 13.0097 1.70546 11.207 2.74248 10.0207L2.87777 9.8757L3.60389 9.14858C3.85084 8.89988 4.00267 8.57606 4.03676 8.2317L4.0441 8.08303V7.05603L4.04922 6.8791C4.13744 5.35693 5.3566 4.13739 6.87824 4.04914L7.0551 4.04403H8.0841C8.43259 4.04403 8.76936 3.92314 9.0364 3.70596L9.14641 3.60706L9.86457 2.8879C10.9909 1.75642 12.7934 1.70661 13.9511 2.71669ZM11.0415 3.84281L10.9268 3.94699L10.2055 4.66924C9.6883 5.18282 9.00418 5.4899 8.28193 5.53751L8.0841 5.54403H7.0551C6.26754 5.54403 5.61982 6.14818 5.55028 6.91846L5.5441 7.05603V8.08303C5.5441 8.81219 5.2795 9.51334 4.80221 10.0614L4.6668 10.207L3.93963 10.9352C3.38782 11.4895 3.35569 12.3651 3.84334 12.9592L3.9478 13.0741L4.66706 13.7943C5.18147 14.3099 5.48976 14.9953 5.53756 15.7181L5.5441 15.916V16.945C5.5441 17.7331 6.14781 18.3804 6.91762 18.4499L7.0551 18.456H8.0841C8.81189 18.456 9.51365 18.7209 10.0618 19.1983L10.2074 19.3337L10.9307 20.057C11.489 20.6121 12.3649 20.6444 12.9584 20.1568L13.0731 20.0523L13.794 19.3324C14.3107 18.8182 14.9952 18.5103 15.7181 18.4626L15.9161 18.456H16.9441C17.7328 18.456 18.3804 17.8526 18.4499 17.0826L18.4561 16.945V15.916C18.4561 15.1872 18.7209 14.4842 19.1976 13.9385L19.3328 13.7937L20.0603 13.0662C20.6121 12.5112 20.644 11.636 20.1571 11.0422L20.0528 10.9274L19.3309 10.2055C18.817 9.6879 18.5102 9.00447 18.4626 8.28118L18.4561 8.08303V7.05603C18.4561 6.26762 17.852 5.61976 17.0817 5.55021L16.9441 5.54403H15.9161C15.1869 5.54403 14.4849 5.27964 13.938 4.80267L13.7928 4.66736L13.1048 3.97758L13.065 3.94056C12.5107 3.38879 11.6348 3.35649 11.0415 3.84281ZM15.0965 14.0426C15.1665 14.1126 15.2265 14.1926 15.2665 14.2826C15.2965 14.3726 15.3165 14.4726 15.3165 14.5726C15.3165 14.6736 15.2965 14.7626 15.2665 14.8526C15.2265 14.9426 15.1665 15.0326 15.0965 15.1026C14.9565 15.2426 14.7665 15.3226 14.5665 15.3226C14.3665 15.3226 14.1765 15.2426 14.0365 15.1026C13.9665 15.0326 13.9165 14.9426 13.8765 14.8526C13.8365 14.7626 13.8165 14.6736 13.8165 14.5726C13.8165 14.4726 13.8365 14.3726 13.8765 14.2826C13.9165 14.1926 13.9665 14.1126 14.0365 14.0426C14.3165 13.7626 14.8165 13.7626 15.0965 14.0426ZM15.1001 8.8994C15.3664 9.16566 15.3906 9.58233 15.1728 9.87594L15.1001 9.96006L9.96013 15.1001C9.66724 15.3929 9.19237 15.3929 8.89947 15.1001C8.63321 14.8338 8.609 14.4171 8.82686 14.1235L8.89947 14.0394L14.0395 8.8994C14.3324 8.6065 14.8072 8.6065 15.1001 8.8994ZM9.9564 8.90303C10.0964 9.04203 10.1764 9.23303 10.1764 9.43303C10.1764 9.53303 10.1664 9.62203 10.1264 9.71303C10.0864 9.80303 10.0264 9.88303 9.9564 9.96303C9.8864 10.033 9.8064 10.082 9.7164 10.122C9.6264 10.162 9.5264 10.183 9.4264 10.183C9.3264 10.183 9.2364 10.162 9.1464 10.122C9.0564 10.082 8.9664 10.033 8.8964 9.96303C8.8264 9.88303 8.7764 9.80303 8.7364 9.71303C8.6964 9.62203 8.6764 9.53303 8.6764 9.43303C8.6764 9.33203 8.6964 9.23303 8.7364 9.14303C8.7764 9.05303 8.8264 8.96303 8.8964 8.90303C9.1864 8.62203 9.6764 8.62203 9.9564 8.90303Z" fill="#FF8D28"/>
</svg>
